<?xml version="1.0" standalone="no"?>
<!DOCTYPE svg PUBLIC "-//W3C//DTD SVG 20010904//EN"
 "http://www.w3.org/TR/2001/REC-SVG-20010904/DTD/svg10.dtd">
<svg version="1.0" xmlns="http://www.w3.org/2000/svg"
 width="300.000000pt" height="300.000000pt" viewBox="0 0 300.000000 300.000000"
 preserveAspectRatio="xMidYMid meet">
<metadata>
Created by potrace 1.11, written by Peter Selinger 2001-2013
</metadata>
<g transform="translate(0.000000,300.000000) scale(0.100000,-0.100000)"
fill="#000000" stroke="none">
<path d="M1358 2985 c-2 -1 -28 -6 -59 -9 -31 -4 -67 -9 -80 -11 -13 -3 -36
-7 -50 -10 -70 -13 -232 -70 -324 -115 -304 -146 -548 -391 -695 -695 -43 -88
-94 -228 -105 -287 -2 -11 -6 -27 -9 -36 -6 -20 -13 -59 -25 -144 -15 -102 -6
-350 17 -464 114 -571 534 -1015 1102 -1164 25 -7 56 -14 70 -16 14 -2 35 -7
48 -9 48 -11 142 -17 257 -17 634 2 1197 410 1402 1017 18 55 36 114 39 130 2
17 7 38 10 47 12 41 30 231 28 313 -6 425 -187 818 -508 1103 -212 188 -490
316 -776 358 -40 6 -337 14 -342 9z"/>
</g>
</svg>
